HIERARCHY
ROOT hip
{
	OFFSET 0.000000 0.000000 0.000000 
	CHANNELS 6 Xposition Yposition Zposition Xrotation Zrotation Yrotation
	JOINT abdomen
	{
		OFFSET 0.000000 3.402643 0.000000 
		CHANNELS 3 Xrotation Zrotation Yrotation
		JOINT chest
		{
			OFFSET 0.000000 8.438565 -0.680529 
			CHANNELS 3 Xrotation Zrotation Yrotation
			JOINT neck
			{
				OFFSET 0.000000 10.207942 -0.272212 
				CHANNELS 3 Xrotation Zrotation Yrotation
				JOINT head
				{
					OFFSET 0.000000 3.130431 0.000000 
					CHANNELS 3 Xrotation Zrotation Yrotation
					End Site
					{
						OFFSET 0.000000 3.130435 0.000000 
					}
				}
			}
			JOINT lCollar
			{
				OFFSET 3.470700 6.669187 -0.816635 
				CHANNELS 3 Yrotation Zrotation Xrotation
				JOINT lShldr
				{
					OFFSET 3.198488 0.000000 0.000000 
					CHANNELS 3 Zrotation Yrotation Xrotation
					JOINT lForeArm
					{
						OFFSET 10.139888 0.000000 0.000000 
						CHANNELS 3 Yrotation Zrotation Xrotation
						JOINT lHand
						{
							OFFSET 8.370511 0.000000 0.000000 
							CHANNELS 3 Zrotation Yrotation Xrotation
							End Site
							{
								OFFSET 4.083176 0.000000 0.000000 
							}
						}
					}
				}
			}
			JOINT rCollar
			{
				OFFSET -3.470700 6.669187 -0.816635 
				CHANNELS 3 Yrotation Zrotation Xrotation
				JOINT rShldr
				{
					OFFSET -3.198488 0.000000 0.000000 
					CHANNELS 3 Zrotation Yrotation Xrotation
					JOINT rForeArm
					{
						OFFSET -10.139888 0.000000 0.000000 
						CHANNELS 3 Yrotation Zrotation Xrotation
						JOINT rHand
						{
							OFFSET -8.370511 0.000000 0.000000 
							CHANNELS 3 Zrotation Yrotation Xrotation
							End Site
							{
								OFFSET -4.083176 0.000000 0.000000 
							}
						}
					}
				}
			}
		}
	}
	JOINT lThigh
	{
		OFFSET 5.308129 -1.633274 1.361059 
		CHANNELS 3 Xrotation Zrotation Yrotation
		JOINT lShin
		{
			OFFSET -2.041588 -20.007561 0.000000 
			CHANNELS 3 Xrotation Zrotation Yrotation
			JOINT lFoot
			{
				OFFSET 0.000000 -19.190928 -1.224953 
				CHANNELS 3 Xrotation Yrotation Zrotation
				End Site
				{
					OFFSET 0.000000 -2.449906 4.627600 
				}
			}
		}
	}
	JOINT rThigh
	{
		OFFSET -5.308129 -1.633274 1.361059 
		CHANNELS 3 Xrotation Zrotation Yrotation
		JOINT rShin
		{
			OFFSET 2.041588 -20.007561 0.000000 
			CHANNELS 3 Xrotation Zrotation Yrotation
			JOINT rFoot
			{
				OFFSET 0.000000 -19.190928 -1.224953 
				CHANNELS 3 Xrotation Yrotation Zrotation
				End Site
				{
					OFFSET 0.000000 -2.449906 4.627600 
				}
			}
		}
	}
}
MOTION
Frames: 13
Frame Time: 0.016667
1.013599 42.949238 1.835347 -0.421256 4.560420 -6.420110 -20.106600 -0.763254 2.359130 18.749399 1.512920 0.967910 39.111000 -5.435080 0.828771 -8.603520 0.000000 0.000000 2.000000 -2.000000 0.000000 93.555901 -179.949997 7.627090 21.797100 -0.341790 0.050826 5.317120 -1.632630 -132.264999 -2.000000 2.000000 0.000000 -92.998299 -176.031998 5.254230 -30.918301 0.332137 0.070255 5.796220 3.329660 -144.533997 7.217225 -2.299862 -1.095241 0.176669 4.282259 -0.096691 -10.161306 14.566110 3.373572 1.314677 -7.769639 -3.107113 11.470314 -7.483275 -0.609745 -15.596527 0.552035 1.159887 
1.008934 42.943401 1.834505 -0.382054 4.531150 -6.367980 -20.126699 -0.743526 2.300470 18.749300 1.571480 0.946532 39.547600 -5.698810 0.625765 -8.603520 0.000000 0.000000 2.000000 -2.000000 0.000000 93.507004 -179.919998 7.431840 21.777599 -0.341807 0.050783 5.312780 -1.661280 -131.921997 -2.000000 2.000000 0.000000 -93.076401 -176.061996 5.303130 -30.947599 0.332102 0.070315 5.787010 3.353280 -144.718994 7.146400 -2.239300 -1.061145 0.187602 4.281590 -0.106562 -10.419416 14.380566 3.426353 1.287113 -7.685917 -3.080847 11.388065 -7.536778 -0.602638 -15.499394 0.522811 1.187145 
1.008119 42.946903 1.833021 -0.421216 4.492070 -6.380540 -20.126900 -0.702216 2.243740 18.739500 1.649560 0.924257 39.836498 -6.007890 0.544633 -8.603520 0.000000 0.000000 2.000000 -2.000000 0.000000 93.438599 -179.949005 7.334120 21.865499 -0.341729 0.050978 5.305250 -1.667520 -131.912003 -2.000000 2.000000 0.000000 -93.183899 -176.158997 5.303360 -30.810900 0.332269 0.070035 5.783580 3.355720 -144.778000 7.092376 -2.131194 -0.659397 0.386514 4.278493 -0.077559 -10.417061 13.996647 3.366706 1.330842 -7.603246 -3.035594 11.393510 -7.563484 -0.594498 -15.570909 0.462523 1.176994 
1.010470 42.946648 1.836043 -0.401646 4.531140 -6.379290 -20.117399 -0.714897 2.237850 18.788300 1.649610 0.925663 39.904900 -5.685810 0.803751 -8.603520 0.000000 0.000000 2.000000 -2.000000 0.000000 93.487503 -179.871002 7.363590 21.875200 -0.341720 0.050999 5.307360 -1.681130 -131.725998 -2.000000 2.000000 0.000000 -93.154602 -176.246994 5.215680 -30.713200 0.332388 0.069835 5.797940 3.340450 -144.602005 7.235094 -2.325375 -1.483272 0.088037 4.294468 -0.116362 -10.361440 14.740977 3.446929 1.322740 -7.662950 -3.049847 11.397635 -7.557966 -0.604684 -15.610985 0.445653 1.168148 
1.001085 42.948982 1.837560 -0.431088 4.619010 -6.518980 -20.116699 -0.706935 2.286800 18.798000 1.727700 0.943080 39.738499 -5.692440 0.821249 -8.603520 0.000000 0.000000 2.000000 -2.000000 0.000000 93.487503 -179.862000 7.490570 21.904499 -0.341694 0.051064 5.305770 -1.671860 -131.843994 -2.000000 2.000000 0.000000 -93.183899 -176.227005 5.430480 -30.771799 0.332317 0.069955 5.787580 3.352870 -144.710007 7.406133 -2.518793 -1.966408 -0.219702 4.318921 -0.146398 -10.303479 15.422146 3.515077 1.171918 -7.786837 -3.129290 11.736581 -7.596427 -0.636170 -15.765979 0.639018 1.242025 
0.997454 42.950409 1.834179 -0.431035 4.531120 -6.489020 -20.136801 -0.663141 2.209000 18.788200 1.766740 0.912284 39.351898 -5.840750 0.816694 -8.603520 0.000000 0.000000 2.000000 -2.000000 0.000000 93.448502 -179.783997 7.695820 21.758101 -0.341824 0.050740 5.311670 -1.652520 -132.059006 -2.000000 2.000000 0.000000 -93.213203 -176.207993 5.459730 -30.771799 0.332317 0.069955 5.786440 3.353680 -144.729004 7.236726 -2.221800 -0.920083 0.123975 4.283773 -0.116697 -10.054924 14.386325 3.345356 1.300619 -7.665491 -3.060314 11.444437 -7.540304 -0.603520 -15.567048 0.697689 1.238877 
0.999648 42.960800 1.836897 -0.538700 4.404100 -6.437730 -20.117100 -0.669048 2.220940 18.749201 1.669090 0.914157 39.472401 -5.820750 0.680944 -8.603520 0.000000 0.000000 2.000000 -2.000000 0.000000 93.468102 -179.735992 7.881470 21.660400 -0.341910 0.050523 5.312790 -1.657530 -132.011002 -2.000000 2.000000 0.000000 -93.135101 -176.130005 5.410710 -30.752300 0.332341 0.069915 5.785870 3.354090 -144.738998 7.440519 -2.190698 -1.485390 0.005547 4.295451 -0.116737 -10.441810 14.856652 3.515362 1.455322 -7.520307 -3.117776 11.403988 -7.548303 -0.603232 -15.580488 0.637587 1.228293 
1.001277 42.949757 1.829180 -0.528906 4.404110 -6.563930 -20.165600 -0.667523 2.252860 18.690599 1.659280 0.932300 39.714500 -5.627600 0.864962 -8.603520 0.000000 0.000000 2.000000 -2.000000 0.000000 93.497398 -179.832993 7.930080 21.758101 -0.341824 0.050740 5.306860 -1.676820 -131.794998 -2.000000 2.000000 0.000000 -93.017899 -176.197998 5.440170 -30.547199 0.332590 0.069494 5.796800 3.341260 -144.621994 7.257282 -2.054540 -0.546832 0.318355 4.293322 -0.107116 -10.316087 14.096582 3.381039 1.399944 -7.542628 -3.050268 11.486390 -7.477242 -0.619911 -15.548411 0.698281 1.205934 
1.001496 42.957542 1.825147 -0.597579 4.540770 -6.531540 -20.185499 -0.692541 2.241760 18.622200 1.717770 0.928344 39.690498 -5.495490 0.872666 -8.603520 0.000000 0.000000 2.000000 -2.000000 0.000000 -86.541496 -0.195100 -171.699005 21.699499 -0.341876 0.050610 5.312230 -1.653140 -132.078995 -2.000000 2.000000 0.000000 -93.027702 -176.119995 5.518110 -30.547199 0.332590 0.069494 5.784730 3.354900 -144.757996 7.455701 -2.392152 -1.660057 0.039921 4.324344 -0.126704 -10.454372 14.989499 3.495791 1.422082 -7.625683 -2.918206 11.499774 -7.617795 -0.621735 -15.543328 0.581332 1.263395 
0.997616 42.957039 1.823214 -0.685700 4.491870 -6.684400 -20.213499 -0.652287 2.321380 18.534300 1.698160 0.965461 39.731201 -5.674410 0.688781 -8.603520 0.000000 0.000000 2.000000 -2.000000 0.000000 -86.551300 -0.068078 -171.669998 21.728800 -0.341850 0.050675 5.311390 -1.652210 -132.050003 -2.000000 2.000000 0.000000 -92.959297 -175.992996 5.556870 -30.566700 0.332566 0.069534 5.771450 3.369370 -144.914993 7.625638 -2.351644 -1.631376 -0.126616 4.283624 -0.135623 -10.318585 15.162580 3.539111 1.427944 -7.560997 -2.815055 11.603869 -7.637312 -0.617031 -15.588189 0.463373 1.265750 
0.997315 42.944309 1.815396 -0.646640 4.628610 -6.653580 -20.233999 -0.733391 2.299740 18.563601 1.688430 0.947137 39.702801 -5.704260 0.694051 -8.603520 0.000000 0.000000 2.000000 -2.000000 0.000000 -86.521896 -0.057783 -171.445007 21.767799 -0.341816 0.050761 5.310540 -1.647490 -132.108002 -2.000000 2.000000 0.000000 -92.773697 -175.953995 5.371230 -30.488600 0.332661 0.069374 5.800190 3.326810 -144.466003 7.294657 -2.351251 -0.528351 0.407632 4.335367 -0.078521 -9.952596 14.162119 3.254694 1.344272 -7.721133 -2.836983 11.672523 -7.676594 -0.632086 -15.641213 0.566633 1.289400 
1.002152 42.947163 1.823169 -0.764222 4.638260 -6.653400 -20.194799 -0.754386 2.327180 18.573400 1.668920 0.957866 39.509201 -5.544600 0.725712 -8.603520 0.000000 0.000000 2.000000 -2.000000 0.000000 -86.521797 -0.106058 -171.210999 21.777599 -0.341807 0.050783 5.312510 -1.657220 -132.001007 -2.000000 2.000000 0.000000 -92.695602 -175.856003 5.419830 -30.527700 0.332614 0.069454 5.822240 3.288810 -144.125000 7.788907 -2.590255 -2.169492 -0.284509 4.285870 -0.145960 -10.660400 15.547912 3.674328 1.427888 -7.704823 -2.905104 11.765074 -7.786227 -0.643557 -15.767178 0.561548 1.342985 
0.997778 42.952091 1.832471 -0.822656 4.325730 -6.819690 -20.154499 -0.675756 2.370040 18.602800 1.522550 0.993006 39.529598 -5.758900 0.636963 -8.603520 0.000000 0.000000 2.000000 -2.000000 0.000000 -86.599998 -0.145558 -171.395996 21.689699 -0.341885 0.050588 5.305250 -1.667520 -131.912003 -2.000000 2.000000 0.000000 -92.656601 -175.865005 5.624930 -30.439800 0.332720 0.069273 5.812720 3.312780 -144.319000 7.969613 -2.240460 -1.924809 -0.385889 4.297535 -0.155656 -10.485957 15.529164 3.626877 1.676705 -7.425892 -2.842098 11.443571 -7.505694 -0.600744 -15.607922 0.664797 1.243431 
